<svg xmlns="http://www.w3.org/2000/svg" xmlns:xlink="http://www.w3.org/1999/xlink" width="500" zoomAndPan="magnify" viewBox="0 0 375 374.999991" height="500" preserveAspectRatio="xMidYMid meet" version="1.0"><defs><g/><clipPath id="0617f7d18c"><path d="M 45.578125 82.59375 L 261.578125 82.59375 L 261.578125 298.59375 L 45.578125 298.59375 Z M 45.578125 82.59375 " clip-rule="nonzero"/></clipPath></defs><g clip-path="url(#0617f7d18c)"><path fill="#ffffff" d="M 45.601562 298.570312 L 45.601562 82.59375 L 261.578125 82.59375 L 261.578125 139.078125 L 260.242188 139.078125 L 260.242188 83.929688 L 46.9375 83.929688 L 46.9375 297.234375 L 260.242188 297.234375 L 260.242188 242.085938 L 261.578125 242.085938 L 261.578125 298.570312 Z M 45.601562 298.570312 " fill-opacity="1" fill-rule="nonzero"/></g><g fill="#ffffff" fill-opacity="1"><g transform="translate(97.567941, 201.109088)"><g><path d="M 37.042969 -25.625 C 37.042969 -22.996094 36.648438 -20.425781 35.859375 -17.917969 C 35.070312 -15.410156 33.929688 -13.074219 32.441406 -10.917969 C 30.949219 -8.761719 29.179688 -6.867188 27.125 -5.234375 C 25.074219 -3.605469 22.785156 -2.324219 20.257812 -1.394531 C 17.734375 -0.464844 15.015625 0 12.101562 0 C 11.578125 0 10.875 -0.015625 9.996094 -0.0507812 C 9.121094 -0.0859375 8.21875 -0.113281 7.289062 -0.132812 C 6.359375 -0.148438 5.507812 -0.15625 4.734375 -0.15625 C 3.929688 -0.15625 3.121094 -0.148438 2.316406 -0.132812 C 1.507812 -0.113281 0.773438 -0.0976562 0.105469 -0.078125 C -0.5625 -0.0625 -1.121094 -0.0351562 -1.578125 0 L -1.421875 -1.050781 C -0.296875 -1.121094 0.585938 -1.261719 1.238281 -1.472656 C 1.886719 -1.683594 2.402344 -2.105469 2.789062 -2.734375 C 3.175781 -3.367188 3.527344 -4.316406 3.839844 -5.578125 L 10.734375 -31.675781 C 11.050781 -32.835938 11.207031 -33.738281 11.207031 -34.386719 C 11.207031 -35.035156 10.945312 -35.492188 10.417969 -35.753906 C 9.890625 -36.019531 8.980469 -36.167969 7.683594 -36.203125 L 7.839844 -37.253906 C 8.332031 -37.21875 8.929688 -37.183594 9.628906 -37.148438 C 10.332031 -37.113281 11.085938 -37.097656 11.890625 -37.097656 C 12.699219 -37.097656 13.488281 -37.097656 14.261719 -37.097656 C 15.066406 -37.132812 15.960938 -37.160156 16.945312 -37.175781 C 17.925781 -37.195312 18.882812 -37.210938 19.8125 -37.230469 C 20.742188 -37.246094 21.539062 -37.253906 22.207031 -37.253906 C 27.1875 -37.253906 30.90625 -36.265625 33.359375 -34.28125 C 35.816406 -32.300781 37.042969 -29.414062 37.042969 -25.625 Z M 11.472656 -0.945312 C 14.171875 -0.945312 16.609375 -1.402344 18.785156 -2.316406 C 20.960938 -3.226562 22.871094 -4.507812 24.519531 -6.15625 C 26.167969 -7.804688 27.546875 -9.71875 28.652344 -11.890625 C 29.757812 -14.066406 30.589844 -16.433594 31.152344 -18.996094 C 31.710938 -21.558594 31.992188 -24.207031 31.992188 -26.941406 C 31.992188 -30.0625 31.117188 -32.40625 29.363281 -33.964844 C 27.609375 -35.527344 24.730469 -36.308594 20.730469 -36.308594 C 19.679688 -36.308594 18.839844 -36.183594 18.207031 -35.941406 C 17.574219 -35.695312 17.066406 -35.246094 16.679688 -34.597656 C 16.292969 -33.949219 15.945312 -33.011719 15.628906 -31.78125 L 8.734375 -5.472656 C 8.453125 -4.457031 8.296875 -3.605469 8.261719 -2.921875 C 8.226562 -2.238281 8.445312 -1.738281 8.917969 -1.421875 C 9.394531 -1.105469 10.242188 -0.945312 11.472656 -0.945312 Z M 11.472656 -0.945312 "/></g></g></g><g fill="#ffffff" fill-opacity="1"><g transform="translate(132.715803, 201.109088)"><g><path d="M 4.421875 -11.945312 C 6.382812 -12.609375 8.164062 -13.269531 9.761719 -13.917969 C 11.355469 -14.566406 12.628906 -15.261719 13.574219 -15.996094 C 14.839844 -17.015625 15.839844 -18.242188 16.574219 -19.679688 C 17.3125 -21.117188 17.679688 -22.695312 17.679688 -24.414062 C 17.679688 -25.433594 17.609375 -26.082031 17.46875 -26.363281 C 17.328125 -26.644531 17.117188 -26.785156 16.839844 -26.785156 C 15.960938 -26.785156 15.015625 -26.398438 13.996094 -25.625 C 12.980469 -24.855469 11.980469 -23.792969 10.996094 -22.441406 C 10.015625 -21.09375 9.113281 -19.558594 8.289062 -17.839844 C 7.464844 -16.121094 6.804688 -14.285156 6.3125 -12.339844 C 5.824219 -10.390625 5.578125 -8.453125 5.578125 -6.523438 C 5.578125 -4.734375 5.910156 -3.445312 6.578125 -2.65625 C 7.242188 -1.867188 8.121094 -1.472656 9.207031 -1.472656 C 10.472656 -1.472656 11.804688 -1.859375 13.207031 -2.632812 C 14.609375 -3.402344 15.980469 -4.769531 17.3125 -6.734375 L 18.152344 -6.3125 C 17.488281 -5.15625 16.609375 -4.035156 15.523438 -2.945312 C 14.433594 -1.859375 13.214844 -0.972656 11.867188 -0.289062 C 10.515625 0.394531 9.085938 0.738281 7.578125 0.738281 C 6.175781 0.738281 4.945312 0.457031 3.894531 -0.105469 C 2.839844 -0.667969 2.035156 -1.5 1.472656 -2.605469 C 0.910156 -3.710938 0.632812 -5.070312 0.632812 -6.683594 C 0.632812 -8.191406 0.910156 -9.882812 1.472656 -11.761719 C 2.035156 -13.636719 2.832031 -15.515625 3.867188 -17.390625 C 4.902344 -19.269531 6.140625 -20.996094 7.578125 -22.574219 C 9.015625 -24.152344 10.613281 -25.414062 12.367188 -26.363281 C 14.121094 -27.308594 15.996094 -27.785156 17.996094 -27.785156 C 19.082031 -27.785156 20.003906 -27.492188 20.757812 -26.914062 C 21.511719 -26.335938 21.890625 -25.46875 21.890625 -24.308594 C 21.890625 -22.90625 21.476562 -21.601562 20.652344 -20.390625 C 19.828125 -19.179688 18.742188 -18.074219 17.390625 -17.074219 C 16.039062 -16.074219 14.574219 -15.191406 12.996094 -14.417969 C 11.417969 -13.644531 9.875 -12.980469 8.367188 -12.417969 C 6.859375 -11.855469 5.523438 -11.402344 4.367188 -11.050781 Z M 4.421875 -11.945312 "/></g></g></g><g fill="#ffffff" fill-opacity="1"><g transform="translate(152.288955, 201.109088)"><g><path d="M 6.417969 0 L 1.839844 0 L 8.15625 -22.574219 C 8.296875 -22.996094 8.410156 -23.460938 8.5 -23.96875 C 8.585938 -24.476562 8.558594 -24.914062 8.417969 -25.285156 C 8.277344 -25.652344 7.929688 -25.835938 7.367188 -25.835938 C 6.59375 -25.835938 5.910156 -25.460938 5.316406 -24.707031 C 4.71875 -23.949219 4.050781 -22.539062 3.316406 -20.46875 L 2.632812 -18.523438 L 1.632812 -18.523438 L 2.945312 -22.363281 C 3.71875 -24.574219 4.675781 -26.03125 5.816406 -26.730469 C 6.953125 -27.433594 8.085938 -27.785156 9.207031 -27.785156 C 10.261719 -27.785156 11.023438 -27.554688 11.496094 -27.097656 C 11.972656 -26.644531 12.234375 -26.054688 12.285156 -25.335938 C 12.339844 -24.617188 12.285156 -23.828125 12.128906 -22.96875 C 11.972656 -22.109375 11.785156 -21.257812 11.578125 -20.417969 Z M 8.839844 -10.945312 C 10.066406 -14.101562 11.261719 -16.75 12.417969 -18.890625 C 13.574219 -21.03125 14.714844 -22.757812 15.839844 -24.074219 C 16.960938 -25.390625 18.109375 -26.335938 19.285156 -26.914062 C 20.460938 -27.492188 21.679688 -27.785156 22.941406 -27.785156 C 24.589844 -27.785156 25.722656 -27.390625 26.335938 -26.597656 C 26.949219 -25.808594 27.222656 -24.808594 27.152344 -23.601562 C 27.082031 -22.390625 26.835938 -21.136719 26.414062 -19.835938 L 21.3125 -4.472656 C 20.996094 -3.527344 20.863281 -2.746094 20.917969 -2.132812 C 20.96875 -1.515625 21.382812 -1.210938 22.152344 -1.210938 C 22.820312 -1.210938 23.476562 -1.578125 24.125 -2.316406 C 24.773438 -3.050781 25.46875 -4.472656 26.203125 -6.578125 L 26.890625 -8.523438 L 27.886719 -8.523438 L 26.574219 -4.683594 C 26.082031 -3.210938 25.476562 -2.085938 24.757812 -1.316406 C 24.039062 -0.542969 23.285156 -0.0078125 22.496094 0.289062 C 21.707031 0.585938 20.941406 0.738281 20.207031 0.738281 C 19.363281 0.738281 18.671875 0.597656 18.128906 0.316406 C 17.582031 0.0351562 17.171875 -0.332031 16.890625 -0.789062 C 16.503906 -1.421875 16.382812 -2.246094 16.523438 -3.261719 C 16.664062 -4.28125 16.945312 -5.402344 17.363281 -6.628906 L 22.363281 -21.679688 C 22.539062 -22.171875 22.6875 -22.757812 22.8125 -23.441406 C 22.933594 -24.125 22.90625 -24.738281 22.730469 -25.285156 C 22.554688 -25.828125 22.046875 -26.097656 21.207031 -26.097656 C 20.363281 -26.097656 19.46875 -25.730469 18.523438 -24.996094 C 17.574219 -24.257812 16.59375 -23.214844 15.574219 -21.863281 C 14.558594 -20.511719 13.558594 -18.898438 12.578125 -17.023438 C 11.59375 -15.144531 10.65625 -13.074219 9.761719 -10.8125 C 8.867188 -8.550781 8.050781 -6.140625 7.3125 -3.578125 Z M 8.839844 -10.945312 "/></g></g></g><g fill="#ffffff" fill-opacity="1"><g transform="translate(179.807319, 201.109088)"><g><path d="M 19.734375 -27.046875 L 19.574219 -25.996094 L 3.210938 -25.996094 L 3.472656 -27.046875 Z M 6.367188 -4.472656 C 6.050781 -3.316406 6.128906 -2.480469 6.605469 -1.972656 C 7.078125 -1.464844 7.699219 -1.210938 8.472656 -1.210938 C 9.242188 -1.210938 10.023438 -1.542969 10.8125 -2.210938 C 11.601562 -2.875 12.382812 -4.296875 13.15625 -6.472656 L 13.890625 -8.523438 L 14.890625 -8.523438 L 13.785156 -5.210938 C 13.015625 -2.929688 12.023438 -1.367188 10.8125 -0.527344 C 9.601562 0.316406 8.191406 0.738281 6.578125 0.738281 C 5.140625 0.738281 4.042969 0.429688 3.289062 -0.183594 C 2.535156 -0.796875 2.085938 -1.667969 1.945312 -2.789062 C 1.804688 -3.910156 1.945312 -5.191406 2.367188 -6.628906 L 10.523438 -35.042969 C 11.367188 -35.078125 12.199219 -35.148438 13.023438 -35.253906 C 13.847656 -35.359375 14.59375 -35.535156 15.261719 -35.78125 Z M 6.367188 -4.472656 "/></g></g></g><g fill="#ffffff" fill-opacity="1"><g transform="translate(194.487066, 201.109088)"><g><path d="M 3.105469 -0.789062 C 3.386719 -0.648438 3.691406 -0.535156 4.027344 -0.449219 C 4.359375 -0.359375 4.859375 -0.316406 5.523438 -0.316406 C 7.070312 -0.316406 8.339844 -0.78125 9.339844 -1.710938 C 10.339844 -2.640625 10.839844 -3.980469 10.839844 -5.734375 C 10.839844 -6.824219 10.636719 -7.902344 10.234375 -8.972656 C 9.832031 -10.042969 9.121094 -11.277344 8.101562 -12.679688 C 7.296875 -13.804688 6.523438 -14.953125 5.789062 -16.128906 C 5.050781 -17.304688 4.683594 -18.699219 4.683594 -20.3125 C 4.683594 -21.820312 5.050781 -23.125 5.789062 -24.230469 C 6.523438 -25.335938 7.515625 -26.203125 8.761719 -26.835938 C 10.007812 -27.46875 11.367188 -27.785156 12.839844 -27.785156 C 13.855469 -27.785156 14.855469 -27.660156 15.839844 -27.414062 C 16.820312 -27.167969 17.636719 -26.722656 18.285156 -26.074219 C 18.933594 -25.425781 19.257812 -24.46875 19.257812 -23.207031 C 19.257812 -22.890625 19.179688 -22.511719 19.023438 -22.074219 C 18.863281 -21.636719 18.609375 -21.257812 18.257812 -20.941406 C 17.910156 -20.628906 17.433594 -20.46875 16.839844 -20.46875 C 16.277344 -20.46875 15.785156 -20.671875 15.363281 -21.074219 C 14.945312 -21.476562 14.734375 -22.011719 14.734375 -22.679688 C 14.734375 -23.3125 14.863281 -23.914062 15.128906 -24.496094 C 15.390625 -25.074219 15.75 -25.644531 16.207031 -26.203125 C 15.539062 -26.625 14.664062 -26.835938 13.574219 -26.835938 C 12.277344 -26.835938 11.191406 -26.398438 10.3125 -25.519531 C 9.4375 -24.644531 8.996094 -23.414062 8.996094 -21.835938 C 8.996094 -21.03125 9.121094 -20.320312 9.367188 -19.707031 C 9.613281 -19.09375 9.972656 -18.453125 10.445312 -17.785156 C 10.917969 -17.117188 11.488281 -16.277344 12.15625 -15.261719 C 13.03125 -13.925781 13.769531 -12.644531 14.367188 -11.417969 C 14.960938 -10.191406 15.261719 -8.894531 15.261719 -7.523438 C 15.261719 -5.910156 14.847656 -4.480469 14.023438 -3.234375 C 13.199219 -1.992188 12.101562 -1.015625 10.734375 -0.316406 C 9.367188 0.386719 7.859375 0.738281 6.210938 0.738281 C 5.015625 0.738281 3.875 0.5625 2.789062 0.210938 C 1.703125 -0.140625 0.816406 -0.691406 0.132812 -1.445312 C -0.550781 -2.203125 -0.894531 -3.210938 -0.894531 -4.472656 C -0.894531 -4.964844 -0.746094 -5.480469 -0.449219 -6.023438 C -0.148438 -6.570312 0.386719 -6.839844 1.15625 -6.839844 C 2 -6.839844 2.597656 -6.5 2.945312 -5.816406 C 3.296875 -5.128906 3.472656 -4.367188 3.472656 -3.527344 C 3.472656 -2.964844 3.429688 -2.464844 3.339844 -2.027344 C 3.253906 -1.585938 3.175781 -1.175781 3.105469 -0.789062 Z M 3.105469 -0.789062 "/></g></g></g><g fill="#ffffff" fill-opacity="1"><g transform="translate(211.534597, 201.109088)"><g><path d="M 19.734375 -27.046875 L 19.574219 -25.996094 L 3.210938 -25.996094 L 3.472656 -27.046875 Z M 6.367188 -4.472656 C 6.050781 -3.316406 6.128906 -2.480469 6.605469 -1.972656 C 7.078125 -1.464844 7.699219 -1.210938 8.472656 -1.210938 C 9.242188 -1.210938 10.023438 -1.542969 10.8125 -2.210938 C 11.601562 -2.875 12.382812 -4.296875 13.15625 -6.472656 L 13.890625 -8.523438 L 14.890625 -8.523438 L 13.785156 -5.210938 C 13.015625 -2.929688 12.023438 -1.367188 10.8125 -0.527344 C 9.601562 0.316406 8.191406 0.738281 6.578125 0.738281 C 5.140625 0.738281 4.042969 0.429688 3.289062 -0.183594 C 2.535156 -0.796875 2.085938 -1.667969 1.945312 -2.789062 C 1.804688 -3.910156 1.945312 -5.191406 2.367188 -6.628906 L 10.523438 -35.042969 C 11.367188 -35.078125 12.199219 -35.148438 13.023438 -35.253906 C 13.847656 -35.359375 14.59375 -35.535156 15.261719 -35.78125 Z M 6.367188 -4.472656 "/></g></g></g><g fill="#ffffff" fill-opacity="1"><g transform="translate(226.214344, 201.109088)"><g><path d="M 20.890625 -18.207031 C 19.628906 -14.699219 18.417969 -11.734375 17.257812 -9.3125 C 16.101562 -6.894531 14.953125 -4.945312 13.8125 -3.472656 C 12.671875 -2 11.515625 -0.929688 10.339844 -0.261719 C 9.164062 0.402344 7.945312 0.738281 6.683594 0.738281 C 5.140625 0.738281 4.015625 0.386719 3.316406 -0.316406 C 2.613281 -1.015625 2.261719 -1.964844 2.261719 -3.15625 C 2.261719 -4.351562 2.507812 -5.699219 3 -7.207031 L 8.101562 -22.574219 C 8.453125 -23.625 8.578125 -24.433594 8.472656 -24.996094 C 8.367188 -25.554688 7.964844 -25.835938 7.261719 -25.835938 C 6.59375 -25.835938 5.9375 -25.46875 5.289062 -24.730469 C 4.640625 -23.996094 3.945312 -22.574219 3.210938 -20.46875 L 2.527344 -18.523438 L 1.527344 -18.523438 L 2.839844 -22.363281 C 3.367188 -23.835938 3.992188 -24.960938 4.710938 -25.730469 C 5.429688 -26.503906 6.183594 -27.039062 6.972656 -27.335938 C 7.761719 -27.632812 8.507812 -27.785156 9.207031 -27.785156 C 10.753906 -27.785156 11.777344 -27.421875 12.285156 -26.703125 C 12.796875 -25.984375 12.988281 -25.066406 12.867188 -23.941406 C 12.742188 -22.820312 12.472656 -21.644531 12.050781 -20.417969 L 7.050781 -5.367188 C 6.070312 -2.421875 6.453125 -0.945312 8.207031 -0.945312 C 9.050781 -0.945312 9.945312 -1.324219 10.890625 -2.078125 C 11.839844 -2.832031 12.804688 -3.921875 13.785156 -5.339844 C 14.769531 -6.761719 15.742188 -8.464844 16.707031 -10.445312 C 17.671875 -12.425781 18.601562 -14.636719 19.496094 -17.074219 C 20.390625 -19.511719 21.207031 -22.136719 21.941406 -24.941406 Z M 20.730469 -4.472656 C 20.488281 -3.527344 20.371094 -2.746094 20.390625 -2.132812 C 20.40625 -1.515625 20.765625 -1.210938 21.46875 -1.210938 C 22.242188 -1.210938 22.949219 -1.621094 23.601562 -2.445312 C 24.25 -3.269531 24.90625 -4.648438 25.574219 -6.578125 L 26.257812 -8.523438 L 27.257812 -8.523438 L 25.941406 -4.683594 C 25.449219 -3.210938 24.84375 -2.085938 24.125 -1.316406 C 23.40625 -0.542969 22.652344 -0.0078125 21.863281 0.289062 C 21.074219 0.585938 20.3125 0.738281 19.574219 0.738281 C 19.011719 0.738281 18.488281 0.613281 17.996094 0.367188 C 17.503906 0.121094 17.136719 -0.226562 16.890625 -0.683594 C 16.609375 -1.28125 16.515625 -2.035156 16.601562 -2.945312 C 16.6875 -3.859375 16.925781 -5.085938 17.3125 -6.628906 L 22.46875 -27.046875 C 23.347656 -27.082031 24.195312 -27.152344 25.019531 -27.257812 C 25.84375 -27.363281 26.589844 -27.539062 27.257812 -27.785156 Z M 20.730469 -4.472656 "/></g></g></g><g fill="#ffffff" fill-opacity="1"><g transform="translate(253.048678, 201.109088)"><g><path d="M 19.417969 -4.472656 C 19.171875 -3.664062 19.074219 -2.921875 19.128906 -2.238281 C 19.179688 -1.550781 19.59375 -1.210938 20.363281 -1.210938 C 21.066406 -1.210938 21.714844 -1.605469 22.3125 -2.394531 C 22.90625 -3.183594 23.539062 -4.578125 24.207031 -6.578125 L 24.835938 -8.523438 L 25.835938 -8.523438 L 24.625 -4.683594 C 24.207031 -3.28125 23.644531 -2.183594 22.941406 -1.394531 C 22.242188 -0.605469 21.503906 -0.0507812 20.730469 0.261719 C 19.960938 0.578125 19.222656 0.738281 18.523438 0.738281 C 16.417969 0.738281 15.3125 -0.261719 15.207031 -2.261719 C 15.171875 -2.824219 15.214844 -3.472656 15.339844 -4.210938 C 15.460938 -4.945312 15.644531 -5.753906 15.890625 -6.628906 L 23.46875 -35.097656 C 23.785156 -36.289062 23.730469 -37.167969 23.3125 -37.730469 C 22.890625 -38.289062 21.820312 -38.570312 20.101562 -38.570312 L 20.417969 -39.675781 C 22.347656 -39.710938 24.046875 -39.914062 25.519531 -40.28125 C 26.992188 -40.648438 28.398438 -41.167969 29.730469 -41.832031 Z M 7.628906 -0.945312 C 8.507812 -0.945312 9.496094 -1.464844 10.601562 -2.5 C 11.707031 -3.535156 12.832031 -4.9375 13.96875 -6.710938 C 15.109375 -8.480469 16.164062 -10.496094 17.128906 -12.761719 C 18.09375 -15.023438 18.855469 -17.363281 19.417969 -19.785156 L 18.628906 -14.101562 C 17.257812 -10.488281 15.898438 -7.59375 14.550781 -5.417969 C 13.199219 -3.246094 11.832031 -1.675781 10.445312 -0.710938 C 9.058594 0.253906 7.613281 0.738281 6.105469 0.738281 C 5.015625 0.738281 4.058594 0.480469 3.234375 -0.0273438 C 2.410156 -0.535156 1.773438 -1.296875 1.316406 -2.316406 C 0.859375 -3.332031 0.632812 -4.628906 0.632812 -6.210938 C 0.632812 -7.894531 0.902344 -9.707031 1.445312 -11.65625 C 1.992188 -13.601562 2.769531 -15.523438 3.789062 -17.417969 C 4.804688 -19.3125 6.023438 -21.039062 7.445312 -22.601562 C 8.867188 -24.160156 10.4375 -25.414062 12.15625 -26.363281 C 13.875 -27.308594 15.699219 -27.785156 17.628906 -27.785156 C 18.433594 -27.785156 19.1875 -27.476562 19.890625 -26.863281 C 20.59375 -26.25 20.976562 -25.328125 21.046875 -24.101562 L 20.628906 -23.046875 C 20.488281 -24.308594 20.136719 -25.214844 19.574219 -25.757812 C 19.011719 -26.300781 18.382812 -26.574219 17.679688 -26.574219 C 16.347656 -26.574219 15.058594 -26.117188 13.8125 -25.203125 C 12.566406 -24.292969 11.4375 -23.082031 10.417969 -21.574219 C 9.402344 -20.066406 8.507812 -18.390625 7.734375 -16.550781 C 6.964844 -14.707031 6.367188 -12.832031 5.945312 -10.917969 C 5.523438 -9.007812 5.316406 -7.207031 5.316406 -5.523438 C 5.316406 -3.980469 5.507812 -2.832031 5.894531 -2.078125 C 6.28125 -1.324219 6.859375 -0.945312 7.628906 -0.945312 Z M 7.628906 -0.945312 "/></g></g></g><g fill="#ffffff" fill-opacity="1"><g transform="translate(278.567582, 201.109088)"><g><path d="M 9.945312 -36.625 C 10.121094 -37.535156 10.585938 -38.324219 11.339844 -38.992188 C 12.09375 -39.65625 12.910156 -39.992188 13.785156 -39.992188 C 14.699219 -39.992188 15.410156 -39.65625 15.917969 -38.992188 C 16.425781 -38.324219 16.59375 -37.535156 16.417969 -36.625 C 16.242188 -35.710938 15.777344 -34.921875 15.023438 -34.253906 C 14.269531 -33.589844 13.4375 -33.253906 12.523438 -33.253906 C 11.648438 -33.253906 10.953125 -33.589844 10.445312 -34.253906 C 9.9375 -34.921875 9.769531 -35.710938 9.945312 -36.625 Z M 8.3125 -22.574219 C 9.050781 -24.75 8.804688 -25.835938 7.578125 -25.835938 C 6.769531 -25.835938 6.050781 -25.398438 5.417969 -24.519531 C 4.789062 -23.644531 4.121094 -22.292969 3.421875 -20.46875 L 2.683594 -18.523438 L 1.683594 -18.523438 L 3.050781 -22.363281 C 3.578125 -23.835938 4.210938 -24.960938 4.945312 -25.730469 C 5.683594 -26.503906 6.464844 -27.039062 7.289062 -27.335938 C 8.113281 -27.632812 8.875 -27.785156 9.578125 -27.785156 C 10.699219 -27.785156 11.523438 -27.554688 12.050781 -27.097656 C 12.578125 -26.644531 12.890625 -26.046875 12.996094 -25.308594 C 13.101562 -24.574219 13.066406 -23.777344 12.890625 -22.914062 C 12.714844 -22.054688 12.488281 -21.222656 12.207031 -20.417969 L 6.578125 -4.472656 C 6.226562 -3.457031 6.113281 -2.65625 6.234375 -2.078125 C 6.359375 -1.5 6.753906 -1.210938 7.417969 -1.210938 C 8.121094 -1.210938 8.789062 -1.597656 9.417969 -2.367188 C 10.050781 -3.140625 10.753906 -4.542969 11.523438 -6.578125 L 12.261719 -8.523438 L 13.261719 -8.523438 L 11.890625 -4.683594 C 11.402344 -3.316406 10.804688 -2.238281 10.101562 -1.445312 C 9.402344 -0.65625 8.648438 -0.0976562 7.839844 0.238281 C 7.035156 0.570312 6.226562 0.738281 5.417969 0.738281 C 3.910156 0.738281 2.894531 0.386719 2.367188 -0.316406 C 1.839844 -1.015625 1.648438 -1.929688 1.789062 -3.050781 C 1.929688 -4.175781 2.226562 -5.367188 2.683594 -6.628906 Z M 8.3125 -22.574219 "/></g></g></g><g fill="#ffffff" fill-opacity="1"><g transform="translate(291.458355, 201.109088)"><g><path d="M 15.996094 -26.730469 C 14.875 -26.730469 13.796875 -26.285156 12.761719 -25.390625 C 11.726562 -24.496094 10.777344 -23.285156 9.917969 -21.757812 C 9.058594 -20.230469 8.304688 -18.523438 7.65625 -16.628906 C 7.007812 -14.734375 6.507812 -12.769531 6.15625 -10.734375 C 5.804688 -8.699219 5.628906 -6.753906 5.628906 -4.894531 C 5.628906 -3.316406 5.882812 -2.15625 6.394531 -1.421875 C 6.902344 -0.683594 7.648438 -0.316406 8.628906 -0.316406 C 9.753906 -0.316406 10.832031 -0.761719 11.867188 -1.65625 C 12.902344 -2.550781 13.855469 -3.761719 14.734375 -5.289062 C 15.609375 -6.8125 16.363281 -8.523438 16.996094 -10.417969 C 17.628906 -12.3125 18.117188 -14.269531 18.46875 -16.285156 C 18.820312 -18.304688 18.996094 -20.257812 18.996094 -22.152344 C 18.996094 -23.765625 18.75 -24.933594 18.257812 -25.652344 C 17.769531 -26.371094 17.015625 -26.730469 15.996094 -26.730469 Z M 1.105469 -7.523438 C 1.105469 -9.066406 1.316406 -10.753906 1.738281 -12.578125 C 2.15625 -14.398438 2.789062 -16.207031 3.628906 -17.996094 C 4.472656 -19.785156 5.5 -21.417969 6.710938 -22.890625 C 7.917969 -24.363281 9.332031 -25.546875 10.945312 -26.441406 C 12.558594 -27.335938 14.347656 -27.785156 16.3125 -27.785156 C 18.488281 -27.785156 20.230469 -27.109375 21.546875 -25.757812 C 22.863281 -24.40625 23.519531 -22.328125 23.519531 -19.523438 C 23.519531 -17.976562 23.3125 -16.292969 22.890625 -14.46875 C 22.46875 -12.644531 21.835938 -10.839844 20.996094 -9.050781 C 20.152344 -7.261719 19.128906 -5.628906 17.917969 -4.15625 C 16.707031 -2.683594 15.292969 -1.5 13.679688 -0.605469 C 12.066406 0.289062 10.277344 0.738281 8.3125 0.738281 C 6.140625 0.738281 4.394531 0.0507812 3.078125 -1.316406 C 1.761719 -2.683594 1.105469 -4.753906 1.105469 -7.523438 Z M 1.105469 -7.523438 "/></g></g></g><g fill="#ffffff" fill-opacity="1"><g transform="translate(314.135943, 201.109088)"><g><path d="M -0.0507812 -1.945312 C -0.0507812 -3 0.351562 -3.9375 1.15625 -4.761719 C 1.964844 -5.585938 2.859375 -6 3.839844 -6 C 4.648438 -6 5.296875 -5.734375 5.789062 -5.210938 C 6.28125 -4.683594 6.523438 -4.035156 6.523438 -3.261719 C 6.523438 -2.5625 6.339844 -1.902344 5.972656 -1.289062 C 5.605469 -0.675781 5.121094 -0.183594 4.523438 0.183594 C 3.929688 0.550781 3.28125 0.738281 2.578125 0.738281 C 1.804688 0.738281 1.175781 0.480469 0.683594 -0.0273438 C 0.191406 -0.535156 -0.0507812 -1.175781 -0.0507812 -1.945312 Z M -0.0507812 -1.945312 "/></g></g></g><g fill="#737373" fill-opacity="1"><g transform="translate(206.817925, 215.718559)"><g><path d="M 8.765625 -3.203125 C 8.765625 -2.117188 8.421875 -1.289062 7.734375 -0.71875 C 7.046875 -0.144531 6.070312 0.140625 4.8125 0.140625 C 3.550781 0.140625 2.578125 -0.144531 1.890625 -0.71875 C 1.203125 -1.289062 0.859375 -2.117188 0.859375 -3.203125 L 0.859375 -7.9375 L 3.40625 -7.9375 L 3.40625 -3.234375 C 3.40625 -2.785156 3.523438 -2.425781 3.765625 -2.15625 C 4.003906 -1.894531 4.347656 -1.765625 4.796875 -1.765625 C 5.253906 -1.765625 5.601562 -1.898438 5.84375 -2.171875 C 6.09375 -2.441406 6.21875 -2.796875 6.21875 -3.234375 L 6.21875 -7.9375 L 8.765625 -7.9375 Z M 8.765625 -3.203125 "/></g></g></g><g fill="#737373" fill-opacity="1"><g transform="translate(216.065569, 215.718559)"><g><path d="M 6.53125 0 L 3.203125 -3.859375 L 3.203125 0 L 0.859375 0 L 0.859375 -7.9375 L 3.078125 -7.9375 L 6.421875 -4.03125 L 6.421875 -7.9375 L 8.765625 -7.9375 L 8.765625 0 Z M 6.53125 0 "/></g></g></g><g fill="#737373" fill-opacity="1"><g transform="translate(225.313212, 215.718559)"><g><path d="M 0.96875 0 L 0.96875 -7.9375 L 3.515625 -7.9375 L 3.515625 0 Z M 0.96875 0 "/></g></g></g><g fill="#737373" fill-opacity="1"><g transform="translate(229.441008, 215.718559)"><g><path d="M 3.015625 0 L 0.203125 -7.9375 L 2.921875 -7.9375 L 4.515625 -2.625 L 4.5625 -2.625 L 6.171875 -7.9375 L 8.78125 -7.9375 L 5.96875 0 Z M 3.015625 0 "/></g></g></g><g fill="#737373" fill-opacity="1"><g transform="translate(238.054432, 215.718559)"><g><path d="M 0.859375 -7.9375 L 7.71875 -7.9375 L 7.71875 -6.03125 L 3.40625 -6.03125 L 3.40625 -4.9375 L 7.09375 -4.9375 L 7.09375 -3.125 L 3.40625 -3.125 L 3.40625 -1.90625 L 7.8125 -1.90625 L 7.8125 0 L 0.859375 0 Z M 0.859375 -7.9375 "/></g></g></g><g fill="#737373" fill-opacity="1"><g transform="translate(246.022111, 215.718559)"><g><path d="M 8.390625 -5.515625 C 8.390625 -5.023438 8.257812 -4.582031 8 -4.1875 C 7.738281 -3.800781 7.359375 -3.515625 6.859375 -3.328125 L 8.625 0 L 5.765625 0 L 4.359375 -2.890625 L 3.40625 -2.890625 L 3.40625 0 L 0.859375 0 L 0.859375 -7.9375 L 5.71875 -7.9375 C 6.28125 -7.9375 6.765625 -7.828125 7.171875 -7.609375 C 7.578125 -7.390625 7.878906 -7.09375 8.078125 -6.71875 C 8.285156 -6.351562 8.390625 -5.953125 8.390625 -5.515625 Z M 5.796875 -5.40625 C 5.796875 -5.613281 5.722656 -5.785156 5.578125 -5.921875 C 5.441406 -6.054688 5.273438 -6.125 5.078125 -6.125 L 3.40625 -6.125 L 3.40625 -4.671875 L 5.078125 -4.671875 C 5.273438 -4.671875 5.441406 -4.738281 5.578125 -4.875 C 5.722656 -5.019531 5.796875 -5.195312 5.796875 -5.40625 Z M 5.796875 -5.40625 "/></g></g></g><g fill="#737373" fill-opacity="1"><g transform="translate(254.635535, 215.718559)"><g><path d="M 4.1875 -8.078125 C 5.207031 -8.078125 6.039062 -7.867188 6.6875 -7.453125 C 7.34375 -7.046875 7.679688 -6.441406 7.703125 -5.640625 L 7.703125 -5.5 L 5.3125 -5.5 L 5.3125 -5.546875 C 5.3125 -5.773438 5.222656 -5.960938 5.046875 -6.109375 C 4.878906 -6.265625 4.625 -6.34375 4.28125 -6.34375 C 3.945312 -6.34375 3.6875 -6.289062 3.5 -6.1875 C 3.320312 -6.09375 3.234375 -5.972656 3.234375 -5.828125 C 3.234375 -5.617188 3.351562 -5.460938 3.59375 -5.359375 C 3.84375 -5.265625 4.242188 -5.164062 4.796875 -5.0625 C 5.429688 -4.925781 5.953125 -4.785156 6.359375 -4.640625 C 6.773438 -4.503906 7.132812 -4.273438 7.4375 -3.953125 C 7.75 -3.628906 7.910156 -3.1875 7.921875 -2.625 C 7.921875 -1.6875 7.601562 -0.988281 6.96875 -0.53125 C 6.332031 -0.0820312 5.484375 0.140625 4.421875 0.140625 C 3.179688 0.140625 2.21875 -0.0664062 1.53125 -0.484375 C 0.84375 -0.898438 0.5 -1.632812 0.5 -2.6875 L 2.90625 -2.6875 C 2.90625 -2.289062 3.007812 -2.023438 3.21875 -1.890625 C 3.425781 -1.753906 3.75 -1.6875 4.1875 -1.6875 C 4.507812 -1.6875 4.773438 -1.71875 4.984375 -1.78125 C 5.203125 -1.851562 5.3125 -2 5.3125 -2.21875 C 5.3125 -2.40625 5.191406 -2.546875 4.953125 -2.640625 C 4.722656 -2.742188 4.34375 -2.847656 3.8125 -2.953125 C 3.164062 -3.085938 2.628906 -3.226562 2.203125 -3.375 C 1.785156 -3.53125 1.414062 -3.78125 1.09375 -4.125 C 0.78125 -4.476562 0.625 -4.953125 0.625 -5.546875 C 0.625 -6.410156 0.957031 -7.046875 1.625 -7.453125 C 2.300781 -7.867188 3.15625 -8.078125 4.1875 -8.078125 Z M 4.1875 -8.078125 "/></g></g></g><g fill="#737373" fill-opacity="1"><g transform="translate(262.603211, 215.718559)"><g><path d="M 6.171875 0 L 5.84375 -1.125 L 3.0625 -1.125 L 2.71875 0 L 0.109375 0 L 3.015625 -7.9375 L 5.984375 -7.9375 L 8.875 0 Z M 3.59375 -2.890625 L 5.3125 -2.890625 L 4.484375 -5.734375 L 4.4375 -5.734375 Z M 3.59375 -2.890625 "/></g></g></g><g fill="#737373" fill-opacity="1"><g transform="translate(271.216635, 215.718559)"><g><path d="M 0.859375 -7.9375 L 3.40625 -7.9375 L 3.40625 -2.03125 L 7.484375 -2.03125 L 7.484375 0 L 0.859375 0 Z M 0.859375 -7.9375 "/></g></g></g></svg>